PathFileType	4	(X/Y/Z)	E:\MAC3D_DATA\2020_06_02_vinay\TPose1.trc																																																																
DataRate	CameraRate	NumFrames	NumMarkers	Units	OrigDataRate	OrigDataStartFrame	OrigNumFrames																																																												
1000	200	20	22	mm	200	103	822																																																												
Frame#	Time	RAsis			LAsis			RPsi			LPsi			RThigh1			RThigh2			RThigh3			RKneeOut			RKneeIn			LThigh1			LThigh2			LThigh3			LKneeOut			LKneeIn			MidAsis			MidPsi			MidPelvis			RHJC			LHJC			MidHJC			RKJC			LKJC		
		X1	Y1	Z1	X2	Y2	Z2	X3	Y3	Z3	X4	Y4	Z4	X5	Y5	Z5	X6	Y6	Z6	X7	Y7	Z7	X8	Y8	Z8	X9	Y9	Z9	X10	Y10	Z10	X11	Y11	Z11	X12	Y12	Z12	X13	Y13	Z13	X14	Y14	Z14	X15	Y15	Z15	X16	Y16	Z16	X17	Y17	Z17	X18	Y18	Z18	X19	Y19	Z19	X20	Y20	Z20	X21	Y21	Z21	X22	Y22	Z22
																																																																			
103	0.51	32.6211	972.964	227.788	37.6899	972.913	-15.1123	-162.837	1020.16	154.171	-162.606	1020.79	71.4473	-67.7529	742.149	299.633	-154.41	642.3	270.772	-39.6562	660.46	277.891	-113.985	507.521	278.475	-97.6639	492.957	163.079	-16.6051	654.452	-60.6152	-57.4026	747.711	-93.3709	-112.99	650.464	-81.3237	-91.5862	504.499	-70.2625	-91.0258	492.115	44.6334	35.16	972.94	106.34	-162.72	1020.47	112.81	-63.78	996.71	109.57	-48.19	904.16	209.21	-47.07	914.40	3.21	-47.63	909.28	106.21	-105.82	500.24	220.78	-91.31	498.31	-12.81
104	0.515	32.6377	972.961	227.784	37.7084	972.909	-15.1147	-162.82	1020.16	154.165	-162.59	1020.79	71.4396	-67.7392	742.141	299.626	-154.394	642.299	270.772	-39.6421	660.459	277.899	-113.973	507.519	278.473	-97.6537	492.953	163.077	-16.5912	654.448	-60.612	-57.3823	747.708	-93.3738	-112.971	650.461	-81.3276	-91.5723	504.497	-70.2642	-91.0133	492.113	44.6302	35.17	972.93	106.33	-162.70	1020.47	112.80	-63.77	996.70	109.57	-48.18	904.16	209.20	-47.05	914.40	3.21	-47.61	909.28	106.21	-105.81	500.24	220.78	-91.29	498.31	-12.82
105	0.52	32.6549	972.958	227.781	37.7268	972.906	-15.1175	-162.803	1020.15	154.158	-162.574	1020.78	71.4321	-67.7246	742.132	299.619	-154.377	642.298	270.771	-39.6276	660.458	277.905	-113.962	507.518	278.471	-97.6431	492.95	163.075	-16.5772	654.444	-60.6092	-57.3624	747.704	-93.3768	-112.952	650.459	-81.3314	-91.5588	504.495	-70.266	-91.0006	492.112	44.6267	35.19	972.93	106.33	-162.69	1020.46	112.80	-63.75	996.70	109.56	-48.16	904.16	209.20	-47.03	914.39	3.21	-47.59	909.27	106.20	-105.80	500.23	220.77	-91.28	498.30	-12.82
106	0.525	32.6725	972.955	227.776	37.7451	972.903	-15.1205	-162.785	1020.14	154.152	-162.558	1020.78	71.4246	-67.7093	742.124	299.611	-154.36	642.298	270.769	-39.6128	660.456	277.909	-113.949	507.516	278.469	-97.6319	492.947	163.072	-16.5632	654.44	-60.6069	-57.3428	747.701	-93.38	-112.934	650.457	-81.3351	-91.5459	504.493	-70.268	-90.9877	492.11	44.6227	35.21	972.93	106.33	-162.67	1020.46	112.79	-63.73	996.69	109.56	-48.14	904.15	209.19	-47.01	914.38	3.20	-47.58	909.27	106.20	-105.79	500.23	220.77	-91.27	498.30	-12.82
107	0.53	32.6906	972.953	227.772	37.7633	972.9	-15.124	-162.768	1020.14	154.145	-162.543	1020.78	71.4172	-67.6935	742.117	299.604	-154.343	642.297	270.766	-39.5982	660.454	277.91	-113.937	507.515	278.467	-97.6201	492.944	163.07	-16.5493	654.437	-60.605	-57.3236	747.698	-93.3832	-112.916	650.456	-81.3389	-91.5334	504.492	-70.2702	-90.9745	492.109	44.6182	35.23	972.93	106.32	-162.66	1020.46	112.78	-63.71	996.69	109.55	-48.13	904.15	209.19	-46.99	914.38	3.20	-47.56	909.27	106.19	-105.78	500.23	220.77	-91.25	498.30	-12.83
108	0.535	32.7091	972.951	227.767	37.7814	972.898	-15.1279	-162.751	1020.14	154.137	-162.527	1020.77	71.4098	-67.6773	742.11	299.596	-154.326	642.297	270.762	-39.5841	660.451	277.906	-113.924	507.513	278.465	-97.6077	492.94	163.067	-16.5355	654.434	-60.6038	-57.305	747.695	-93.3864	-112.898	650.454	-81.3427	-91.5214	504.491	-70.2726	-90.9612	492.109	44.6133	35.25	972.92	106.32	-162.64	1020.45	112.77	-63.70	996.69	109.55	-48.11	904.15	209.18	-46.97	914.38	3.19	-47.54	909.26	106.19	-105.77	500.23	220.77	-91.24	498.30	-12.83
109	0.54	32.728	972.949	227.762	37.7995	972.896	-15.1323	-162.733	1020.13	154.13	-162.512	1020.77	71.4023	-67.6608	742.104	299.589	-154.309	642.297	270.758	-39.5706	660.447	277.897	-113.911	507.512	278.464	-97.5945	492.937	163.064	-16.5219	654.432	-60.6031	-57.2869	747.693	-93.3896	-112.88	650.453	-81.3467	-91.5096	504.49	-70.2753	-90.9476	492.108	44.6079	35.26	972.92	106.31	-162.62	1020.45	112.77	-63.68	996.69	109.54	-48.09	904.15	209.18	-46.95	914.37	3.19	-47.52	909.26	106.18	-105.75	500.22	220.76	-91.23	498.30	-12.83
110	0.545	32.7473	972.947	227.757	37.8175	972.895	-15.1371	-162.716	1020.13	154.121	-162.496	1020.76	71.3946	-67.6442	742.1	299.581	-154.291	642.297	270.754	-39.5575	660.442	277.885	-113.898	507.51	278.462	-97.5806	492.934	163.061	-16.5084	654.43	-60.6031	-57.2695	747.691	-93.3928	-112.863	650.452	-81.3509	-91.4981	504.489	-70.2782	-90.9339	492.107	44.6021	35.28	972.92	106.31	-162.61	1020.44	112.76	-63.66	996.68	109.53	-48.07	904.14	209.17	-46.93	914.37	3.18	-47.50	909.26	106.18	-105.74	500.22	220.76	-91.22	498.30	-12.84
111	0.55	32.7669	972.946	227.752	37.8354	972.893	-15.1425	-162.699	1020.12	154.113	-162.481	1020.76	71.3866	-67.6276	742.096	299.572	-154.274	642.298	270.748	-39.5448	660.437	277.87	-113.884	507.509	278.46	-97.5663	492.931	163.058	-16.4951	654.429	-60.6036	-57.2526	747.69	-93.3961	-112.846	650.452	-81.3552	-91.4868	504.488	-70.2813	-90.9201	492.107	44.5958	35.30	972.92	106.30	-162.59	1020.44	112.75	-63.64	996.68	109.53	-48.05	904.14	209.16	-46.91	914.37	3.17	-47.48	909.25	106.17	-105.73	500.22	220.76	-91.20	498.30	-12.84
112	0.555	32.7868	972.945	227.746	37.8533	972.892	-15.1484	-162.682	1020.12	154.103	-162.466	1020.76	71.3783	-67.6112	742.092	299.564	-154.258	642.299	270.743	-39.5323	660.432	277.854	-113.87	507.508	278.459	-97.5516	492.928	163.054	-16.4821	654.427	-60.6044	-57.2363	747.688	-93.3996	-112.829	650.451	-81.3598	-91.4757	504.488	-70.2846	-90.9062	492.106	44.5893	35.32	972.92	106.30	-162.57	1020.44	112.74	-63.63	996.68	109.52	-48.03	904.14	209.16	-46.89	914.37	3.17	-47.46	909.25	106.16	-105.71	500.22	220.76	-91.19	498.30	-12.85
113	0.56	32.807	972.944	227.74	37.8709	972.89	-15.1549	-162.665	1020.12	154.094	-162.451	1020.75	71.3695	-67.595	742.09	299.555	-154.241	642.3	270.737	-39.5198	660.427	277.837	-113.857	507.507	278.458	-97.537	492.926	163.051	-16.4694	654.426	-60.6056	-57.2206	747.687	-93.4035	-112.813	650.45	-81.3647	-91.4647	504.488	-70.2882	-90.8924	492.106	44.5827	35.34	972.92	106.29	-162.56	1020.43	112.73	-63.61	996.68	109.51	-48.01	904.14	209.15	-46.87	914.36	3.16	-47.44	909.25	106.16	-105.70	500.22	220.75	-91.18	498.30	-12.85
114	0.565	32.8274	972.944	227.734	37.8885	972.888	-15.1622	-162.648	1020.12	154.084	-162.437	1020.75	71.3604	-67.579	742.088	299.546	-154.225	642.302	270.731	-39.5072	660.422	277.819	-113.843	507.506	278.456	-97.5227	492.924	163.047	-16.4569	654.424	-60.6069	-57.2053	747.685	-93.4076	-112.796	650.449	-81.3699	-91.4539	504.487	-70.2921	-90.8786	492.106	44.5763	35.36	972.92	106.29	-162.54	1020.43	112.72	-63.59	996.68	109.50	-47.99	904.14	209.14	-46.86	914.36	3.15	-47.42	909.25	106.15	-105.68	500.21	220.75	-91.17	498.30	-12.86
115	0.57	32.8481	972.944	227.728	37.906	972.885	-15.1701	-162.632	1020.12	154.073	-162.422	1020.75	71.3508	-67.5633	742.087	299.537	-154.209	642.303	270.724	-39.4946	660.417	277.802	-113.83	507.505	278.454	-97.5089	492.922	163.043	-16.4446	654.422	-60.6086	-57.1904	747.684	-93.4121	-112.78	650.448	-81.3756	-91.4432	504.487	-70.2962	-90.8647	492.106	44.5703	35.38	972.91	106.28	-162.53	1020.43	112.71	-63.57	996.67	109.50	-47.98	904.14	209.14	-46.84	914.36	3.15	-47.41	909.25	106.14	-105.67	500.21	220.75	-91.15	498.30	-12.86
116	0.575	32.8689	972.943	227.721	37.9235	972.883	-15.1788	-162.615	1020.11	154.062	-162.407	1020.75	71.3408	-67.5479	742.086	299.527	-154.194	642.305	270.717	-39.4821	660.412	277.785	-113.817	507.505	278.451	-97.4961	492.921	163.038	-16.4323	654.42	-60.6103	-57.1759	747.682	-93.417	-112.765	650.446	-81.3818	-91.4326	504.487	-70.3008	-90.8509	492.106	44.565	35.40	972.91	106.27	-162.51	1020.43	112.70	-63.56	996.67	109.49	-47.96	904.14	209.13	-46.81	914.35	3.14	-47.39	909.25	106.13	-105.66	500.21	220.74	-91.14	498.30	-12.87
117	0.58	32.8899	972.943	227.714	37.9409	972.88	-15.1883	-162.599	1020.11	154.051	-162.392	1020.75	71.3303	-67.5329	742.085	299.518	-154.179	642.307	270.71	-39.4695	660.408	277.768	-113.805	507.505	278.447	-97.4843	492.92	163.034	-16.4201	654.418	-60.6123	-57.1616	747.68	-93.4221	-112.75	650.445	-81.3884	-91.4222	504.486	-70.3058	-90.8371	492.106	44.5605	35.42	972.91	106.26	-162.50	1020.43	112.69	-63.54	996.67	109.48	-47.94	904.14	209.12	-46.80	914.35	3.13	-47.37	909.25	106.13	-105.64	500.21	220.74	-91.13	498.30	-12.87
118	0.585	32.9108	972.942	227.706	37.9583	972.877	-15.1985	-162.582	1020.11	154.04	-162.377	1020.74	71.3195	-67.5184	742.085	299.508	-154.165	642.309	270.702	-39.4571	660.404	277.753	-113.794	507.506	278.442	-97.4738	492.919	163.028	-16.4078	654.415	-60.6143	-57.1477	747.679	-93.4276	-112.735	650.444	-81.3955	-91.4121	504.486	-70.3111	-90.8236	492.106	44.5567	35.43	972.91	106.25	-162.48	1020.42	112.68	-63.52	996.67	109.47	-47.92	904.14	209.11	-46.78	914.35	3.12	-47.35	909.24	106.12	-105.63	500.21	220.74	-91.12	498.30	-12.88
119	0.59	32.9317	972.941	227.698	37.9755	972.874	-15.2094	-162.566	1020.11	154.028	-162.361	1020.74	71.3084	-67.5043	742.085	299.499	-154.152	642.31	270.694	-39.4449	660.4	277.738	-113.783	507.506	278.436	-97.4645	492.918	163.023	-16.3955	654.412	-60.6161	-57.1339	747.677	-93.4333	-112.721	650.442	-81.4031	-91.4023	504.485	-70.3169	-90.8105	492.106	44.5533	35.45	972.91	106.24	-162.46	1020.42	112.67	-63.50	996.67	109.46	-47.90	904.14	209.11	-46.76	914.35	3.11	-47.33	909.24	106.11	-105.62	500.21	220.73	-91.11	498.30	-12.88
120	0.595	32.9525	972.94	227.689	37.9926	972.871	-15.221	-162.549	1020.11	154.017	-162.346	1020.74	71.297	-67.4908	742.085	299.49	-154.139	642.311	270.686	-39.433	660.397	277.724	-113.773	507.507	278.429	-97.4566	492.917	163.017	-16.3833	654.408	-60.6175	-57.1204	747.674	-93.4391	-112.707	650.441	-81.4113	-91.3929	504.484	-70.323	-90.7983	492.106	44.5498	35.47	972.91	106.23	-162.45	1020.42	112.66	-63.49	996.67	109.45	-47.88	904.13	209.10	-46.74	914.34	3.10	-47.31	909.24	106.10	-105.61	500.21	220.72	-91.10	498.29	-12.89
121	0.6	32.973	972.938	227.68	38.0095	972.867	-15.2332	-162.532	1020.11	154.006	-162.331	1020.74	71.2853	-67.4778	742.085	299.481	-154.127	642.313	270.677	-39.4215	660.393	277.711	-113.765	507.508	278.421	-97.4499	492.916	163.01	-16.3711	654.404	-60.6186	-57.1071	747.672	-93.4452	-112.694	650.44	-81.42	-91.3841	504.484	-70.3295	-90.787	492.106	44.5462	35.49	972.90	106.22	-162.43	1020.42	112.65	-63.47	996.66	109.43	-47.87	904.13	209.09	-46.73	914.34	3.09	-47.30	909.24	106.09	-105.61	500.21	220.72	-91.09	498.29	-12.89
122	0.605	32.9935	972.936	227.67	38.0262	972.864	-15.2461	-162.516	1020.11	153.994	-162.315	1020.74	71.2734	-67.4654	742.085	299.473	-154.115	642.314	270.668	-39.4105	660.39	277.698	-113.757	507.509	278.413	-97.4443	492.914	163.003	-16.3589	654.399	-60.6195	-57.0941	747.669	-93.4514	-112.681	650.438	-81.4293	-91.3758	504.483	-70.3362	-90.7768	492.106	44.5421	35.51	972.90	106.21	-162.42	1020.42	112.63	-63.45	996.66	109.42	-47.85	904.13	209.07	-46.71	914.34	3.08	-47.28	909.24	106.08	-105.60	500.21	220.71	-91.08	498.29	-12.90
